<svg width="120" height="120" viewBox="0 0 120 120" fill="none" xmlns="http://www.w3.org/2000/svg">
<path d="M98.9231 33H21.0769C17.1684 33 14 36.3932 14 40.5789V97.4211C14 101.607 17.1684 105 21.0769 105H98.9231C102.832 105 106 101.607 106 97.4211V40.5789C106 36.3932 102.832 33 98.9231 33Z" fill="url(#paint0_linear_1_12)"/>
<path d="M98.9231 33H21.0769C17.1684 33 14 36.3932 14 40.5789V97.4211C14 101.607 17.1684 105 21.0769 105H98.9231C102.832 105 106 101.607 106 97.4211V40.5789C106 36.3932 102.832 33 98.9231 33Z" fill="#D8B889" fill-opacity="0.1"/>
<path d="M21.0769 14.5H98.9231C100.785 14.5 102.45 15.0402 103.636 15.8885C104.824 16.7373 105.5 17.8651 105.5 19.0588V53.9888C105.5 54.5853 105.334 55.0011 105.066 55.3105C104.789 55.6298 104.366 55.8798 103.777 56.0652C102.582 56.4418 100.891 56.5 98.9231 56.5H21.0769C19.1086 56.5 17.418 56.4418 16.2231 56.0652C15.6345 55.8798 15.2106 55.6298 14.934 55.3105C14.6659 55.0011 14.5 54.5853 14.5 53.9888V19.0588C14.5 17.8651 15.176 16.7373 16.3635 15.8885C17.5501 15.0402 19.215 14.5 21.0769 14.5Z" fill="#584D3D" stroke="#F5D6A7"/>
<path d="M99.7692 14H20.2308C16.2373 14 13 16.0542 13 18.5882V48.4118C13 50.9458 16.2373 53 20.2308 53H99.7692C103.763 53 107 50.9458 107 48.4118V18.5882C107 16.0542 103.763 14 99.7692 14Z" fill="#CBAD80"/>
<path d="M99.7692 14H20.2308C16.2373 14 13 16.0542 13 18.5882V48.4118C13 50.9458 16.2373 53 20.2308 53H99.7692C103.763 53 107 50.9458 107 48.4118V18.5882C107 16.0542 103.763 14 99.7692 14Z" fill="url(#paint1_linear_1_12)"/>
<path d="M99.7692 14H20.2308C16.2373 14 13 16.0542 13 18.5882V48.4118C13 50.9458 16.2373 53 20.2308 53H99.7692C103.763 53 107 50.9458 107 48.4118V18.5882C107 16.0542 103.763 14 99.7692 14Z" fill="url(#paint2_linear_1_12)" fill-opacity="0.2"/>
<path d="M99.7692 14H20.2308C16.2373 14 13 16.0542 13 18.5882V48.4118C13 50.9458 16.2373 53 20.2308 53H99.7692C103.763 53 107 50.9458 107 48.4118V18.5882C107 16.0542 103.763 14 99.7692 14Z" fill="#D8B889" fill-opacity="0.53"/>
<path d="M99.7692 14H20.2308C16.2373 14 13 15.5275 13 17.4118V39.5882C13 41.4725 16.2373 43 20.2308 43H99.7692C103.763 43 107 41.4725 107 39.5882V17.4118C107 15.5275 103.763 14 99.7692 14Z" fill="#D8B889"/>
<rect x="66" y="32" width="16" height="11" fill="#584D3D"/>
<rect x="66" y="14" width="16" height="10" fill="#584D3D"/>
<rect x="13" y="32" width="8" height="94" transform="rotate(-90 13 32)" fill="url(#paint3_linear_1_12)"/>
<rect x="13" y="33" width="1" height="94" transform="rotate(-90 13 33)" fill="#39352E"/>
<rect x="66" y="43" width="16" height="10" fill="#39352E"/>
<rect x="66" y="57" width="16" height="48" fill="#39352E"/>
<rect x="24.5" y="82.5" width="19" height="11" fill="#CBAD80" stroke="#BA9F76"/>
<rect x="26" y="85" width="12" height="2" fill="#39352E"/>
<rect x="26" y="89" width="14" height="2" fill="#39352E"/>
<rect x="66" y="53" width="16" height="3" fill="#1B1815"/>
<rect x="66" y="56" width="16" height="1" fill="#584D3D"/>
<defs>
<linearGradient id="paint0_linear_1_12" x1="13.8436" y1="86.0526" x2="105.844" y2="86.0526" gradientUnits="userSpaceOnUse">
<stop stop-color="#987644"/>
<stop offset="0.0722787" stop-color="#AC8F64"/>
<stop offset="0.14522" stop-color="#B6986B"/>
<stop offset="0.869658" stop-color="#B6986B"/>
<stop offset="0.932652" stop-color="#AC8F64"/>
<stop offset="1" stop-color="#987644"/>
</linearGradient>
<linearGradient id="paint1_linear_1_12" x1="12.8402" y1="42.7368" x2="106.84" y2="42.7368" gradientUnits="userSpaceOnUse">
<stop stop-color="#987644"/>
<stop offset="0.0288459" stop-color="#AC8F64"/>
<stop offset="0.057692" stop-color="#B6986B"/>
<stop offset="0.942308" stop-color="#B6986B"/>
<stop offset="0.971333" stop-color="#AC8F64"/>
<stop offset="1" stop-color="#987644"/>
</linearGradient>
<linearGradient id="paint2_linear_1_12" x1="60" y1="14" x2="60" y2="53" gradientUnits="userSpaceOnUse">
<stop stop-color="#E6B66F"/>
<stop offset="1" stop-opacity="0"/>
</linearGradient>
<linearGradient id="paint3_linear_1_12" x1="21" y1="78" x2="13" y2="78" gradientUnits="userSpaceOnUse">
<stop stop-color="#453D31"/>
<stop offset="1" stop-color="#584D3D"/>
</linearGradient>
</defs>
</svg>
